<svg width="17" height="53" viewBox="0 0 17 53" fill="none" xmlns="http://www.w3.org/2000/svg">
<g filter="url(#filter0_d_744_538)">
<path d="M12.3636 40.1818C12.3636 41.303 11.9621 42.2652 11.1591 43.0682C10.3561 43.8712 9.39394 44.2727 8.27273 44.2727C7.15152 44.2727 6.18939 43.8712 5.38636 43.0682C4.58333 42.2652 4.18182 41.303 4.18182 40.1818C4.18182 39.0606 4.58333 38.0985 5.38636 37.2955C6.18939 36.4924 7.15152 36.0909 8.27273 36.0909C9.01515 36.0909 9.69697 36.2803 10.3182 36.6591C10.9394 37.0227 11.4394 37.5152 11.8182 38.1364C12.1818 38.7424 12.3636 39.4242 12.3636 40.1818ZM12.3636 22.5568C12.3636 23.678 11.9621 24.6402 11.1591 25.4432C10.3561 26.2462 9.39394 26.6477 8.27273 26.6477C7.15152 26.6477 6.18939 26.2462 5.38636 25.4432C4.58333 24.6402 4.18182 23.678 4.18182 22.5568C4.18182 21.4356 4.58333 20.4735 5.38636 19.6705C6.18939 18.8674 7.15152 18.4659 8.27273 18.4659C9.01515 18.4659 9.69697 18.6553 10.3182 19.0341C10.9394 19.3977 11.4394 19.8902 11.8182 20.5114C12.1818 21.1174 12.3636 21.7992 12.3636 22.5568ZM12.3636 4.93182C12.3636 6.05303 11.9621 7.01515 11.1591 7.81818C10.3561 8.62121 9.39394 9.02273 8.27273 9.02273C7.15152 9.02273 6.18939 8.62121 5.38636 7.81818C4.58333 7.01515 4.18182 6.05303 4.18182 4.93182C4.18182 3.81061 4.58333 2.84848 5.38636 2.04545C6.18939 1.24242 7.15152 0.840909 8.27273 0.840909C9.01515 0.840909 9.69697 1.0303 10.3182 1.40909C10.9394 1.77273 11.4394 2.26515 11.8182 2.88636C12.1818 3.49242 12.3636 4.17424 12.3636 4.93182Z" fill="white"/>
</g>
<defs>
<filter id="filter0_d_744_538" x="0.181824" y="0.840881" width="16.1818" height="51.4318" filterUnits="userSpaceOnUse" color-interpolation-filters="sRGB">
<feFlood flood-opacity="0" result="BackgroundImageFix"/>
<feColorMatrix in="SourceAlpha" type="matrix" values="0 0 0 0 0 0 0 0 0 0 0 0 0 0 0 0 0 0 127 0" result="hardAlpha"/>
<feOffset dy="4"/>
<feGaussianBlur stdDeviation="2"/>
<feComposite in2="hardAlpha" operator="out"/>
<feColorMatrix type="matrix" values="0 0 0 0 0 0 0 0 0 0 0 0 0 0 0 0 0 0 0.25 0"/>
<feBlend mode="normal" in2="BackgroundImageFix" result="effect1_dropShadow_744_538"/>
<feBlend mode="normal" in="SourceGraphic" in2="effect1_dropShadow_744_538" result="shape"/>
</filter>
</defs>
</svg>
